<?xml version="1.0" encoding="UTF-8" standalone="no"?>
<svg
   width="65"
   height="65"
   viewBox="0 0 61 65"
   fill="none"
   version="1.1"
   id="svg62"
   sodipodi:docname="mastodon.svg"
   inkscape:version="1.2.1 (9c6d41e410, 2022-07-14)"
   xmlns:inkscape="http://www.inkscape.org/namespaces/inkscape"
   xmlns:sodipodi="http://sodipodi.sourceforge.net/DTD/sodipodi-0.dtd"
   xmlns:xlink="http://www.w3.org/1999/xlink"
   xmlns="http://www.w3.org/2000/svg"
   xmlns:svg="http://www.w3.org/2000/svg">
  <sodipodi:namedview
     id="namedview64"
     pagecolor="#ffffff"
     bordercolor="#000000"
     borderopacity="0.25"
     inkscape:showpageshadow="2"
     inkscape:pageopacity="0.0"
     inkscape:pagecheckerboard="0"
     inkscape:deskcolor="#d1d1d1"
     showgrid="false"
     inkscape:zoom="9.774574"
     inkscape:cx="24.40004"
     inkscape:cy="34.681818"
     inkscape:window-width="1920"
     inkscape:window-height="1005"
     inkscape:window-x="0"
     inkscape:window-y="0"
     inkscape:window-maximized="1"
     inkscape:current-layer="svg62" />
  <defs
     id="defs60">
    <linearGradient
       id="paint0_linear_89_8"
       x1="30.5"
       y1="0"
       x2="30.5"
       y2="65"
       gradientUnits="userSpaceOnUse"
       spreadMethod="pad">
      <stop
         stop-color="#6364FF"
         id="stop5385" />
      <stop
         offset="1"
         stop-color="#563ACC"
         id="stop5387" />
    </linearGradient>
    <linearGradient
       inkscape:collect="always"
       xlink:href="#paint0_linear_89_8"
       id="linearGradient1009"
       x1="29.998547"
       y1="0.093474612"
       x2="29.998547"
       y2="64.936211"
       gradientUnits="userSpaceOnUse"
       gradientTransform="scale(1.0000086)" />
  </defs>
  <path
     id="path235-3"
     d="M 29.917885,0 C 19.230203,0 16.935954,0.6557312 15.718544,0.83594452 8.7037714,1.8729062 2.2980523,6.8181499 0.74380689,13.884883 c -0.74757233,3.480224 -0.82638301,7.339769 -0.68750582,10.878996 0.19797361,5.075537 0.23631694,10.140602 0.6972719,15.195439 0.31866973,3.357726 0.87509053,6.689611 1.66407633,9.968834 1.4774218,6.056345 7.4570662,11.096239 13.3165197,13.152454 6.273348,2.144316 13.020293,2.499563 19.484543,1.027353 0.711105,-0.165401 1.414035,-0.357475 2.10744,-0.576177 1.571911,-0.499204 3.412355,-1.056319 4.765666,-2.037126 0.0186,-0.0138 0.03422,-0.03233 0.04492,-0.05273 0.0108,-0.0205 0.01678,-0.04331 0.01758,-0.06641 v -4.898479 c -4e-4,-0.0216 -0.006,-0.04115 -0.01563,-0.06055 -0.0096,-0.0193 -0.02402,-0.03748 -0.04102,-0.05078 -0.017,-0.0133 -0.03749,-0.02264 -0.05859,-0.02734 -0.021,-0.0047 -0.0415,-0.0048 -0.0625,0 -4.141631,0.989207 -8.386507,1.486327 -12.64464,1.478527 -7.327955,0 -9.299062,-3.478211 -9.863366,-4.925822 -0.453703,-1.25111 -0.740375,-2.555082 -0.855476,-3.880892 -0.0012,-0.0222 0.0027,-0.04601 0.01172,-0.06641 0.009,-0.0203 0.02176,-0.03863 0.03906,-0.05273 0.0173,-0.0141 0.03875,-0.02264 0.06055,-0.02734 0.0218,-0.0048 0.04285,-0.0056 0.06445,0 4.072531,0.982407 8.248075,1.479629 12.437607,1.478529 1.007507,0 2.01195,-7.44e-4 3.019557,-0.02734 4.213533,-0.118201 8.65526,-0.333081 12.800892,-1.142587 0.1034,-0.0207 0.206323,-0.03981 0.294924,-0.06641 6.539041,-1.255609 12.762235,-5.196234 13.39464,-15.175908 0.0236,-0.392904 0.082,-4.115773 0.082,-4.523476 0.003,-1.385611 0.446754,-9.828013 -0.0645,-15.01575 C 59.814479,7.4067146 53.727437,1.9024564 46.511778,0.83594452 45.294369,0.6557312 40.682645,0 29.997964,0 Z m -8.916092,10.634855 c 3.519227,0 6.18028,1.353455 7.953193,4.056674 l 1.708999,2.871117 1.714858,-2.871117 c 1.772914,-2.703219 4.432055,-4.056674 7.945382,-4.056674 3.037623,0 5.488077,1.069554 7.361391,3.15237 1.808414,2.085714 2.711002,4.902163 2.709002,8.449289 V 39.588222 H 43.517611 V 22.748237 c 0,-3.545227 -1.477337,-5.353561 -4.48246,-5.353561 -3.303525,0 -4.957074,2.138604 -4.957074,6.363334 v 9.218828 H 27.244034 V 23.75801 c 0,-4.22473 -1.659408,-6.363334 -4.962933,-6.363334 -2.987323,0 -4.478555,1.808334 -4.478555,5.353561 V 39.588222 H 10.929442 V 22.236514 c 0,-3.545226 0.904552,-6.361575 2.714865,-8.449289 1.867514,-2.082816 4.316962,-3.15237 7.357486,-3.15237 z"
     style="display:inline;fill:url(#linearGradient1009);fill-opacity:1;fill-rule:nonzero;stroke-width:1;stroke-dasharray:none" />
</svg>
