<?xml version="1.0" encoding="UTF-8" standalone="no"?>
<svg
   version="1.0"
   width="232pt"
   height="232pt"
   viewBox="0 0 232 232"
   preserveAspectRatio="xMidYMid"
   id="svg10"
   sodipodi:docname="pronouns.svg"
   inkscape:version="1.2.1 (9c6d41e410, 2022-07-14)"
   xmlns:inkscape="http://www.inkscape.org/namespaces/inkscape"
   xmlns:sodipodi="http://sodipodi.sourceforge.net/DTD/sodipodi-0.dtd"
   xmlns="http://www.w3.org/2000/svg"
   xmlns:svg="http://www.w3.org/2000/svg">
  <defs
     id="defs14" />
  <sodipodi:namedview
     id="namedview12"
     pagecolor="#ffffff"
     bordercolor="#000000"
     borderopacity="0.25"
     inkscape:showpageshadow="2"
     inkscape:pageopacity="0.0"
     inkscape:pagecheckerboard="0"
     inkscape:deskcolor="#d1d1d1"
     inkscape:document-units="pt"
     showgrid="false"
     inkscape:zoom="1"
     inkscape:cx="204.5"
     inkscape:cy="166"
     inkscape:window-width="950"
     inkscape:window-height="709"
     inkscape:window-x="26"
     inkscape:window-y="23"
     inkscape:window-maximized="0"
     inkscape:current-layer="g16422" />
  <metadata
     id="metadata2">
Created by potrace 1.10, written by Peter Selinger 2001-2011
</metadata>
  <g
     transform="matrix(0.1,0,0,-0.1,-35.00843,273.51209)"
     fill="#000000"
     stroke="none"
     id="g8"
     style="display:none">
    <path
       d="m 1668,2131 -108,-6 -68,-115 c -38,-63 -137,-232 -222,-375 -217,-369 -220,-373 -262,-410 -22,-18 -59,-38 -84,-45 -56,-16 -151,-7 -202,19 -165,85 -196,332 -57,460 74,69 96,74 320,80 l 199,6 63,105 c 34,58 59,107 55,110 -4,3 -135,3 -292,0 l -285,-5 -78,-37 c -138,-66 -243,-192 -282,-339 -57,-214 55,-478 240,-570 91,-44 225,-65 330,-51 175,23 252,78 341,242 58,107 476,848 505,896 17,27 17,48 0,42 -3,-1 -54,-4 -113,-7 z m 65,-49 c -3,-9 -13,-25 -21,-34 -8,-10 -11,-18 -6,-18 5,0 4,-4 -2,-8 -6,-4 -25,-36 -42,-72 -17,-36 -42,-81 -54,-100 -12,-19 -27,-44 -34,-55 -6,-11 -21,-38 -34,-60 -12,-22 -33,-58 -46,-81 -13,-22 -22,-44 -19,-47 3,-4 2,-5 -1,-3 -3,3 -22,-26 -41,-62 -20,-37 -44,-78 -54,-91 -11,-13 -19,-29 -19,-36 0,-6 -9,-22 -20,-35 -11,-13 -20,-29 -20,-35 0,-7 -9,-24 -20,-38 -11,-14 -20,-32 -20,-41 0,-9 -4,-16 -9,-16 -5,0 -14,-12 -20,-27 -26,-66 -123,-183 -152,-183 -9,0 -19,-6 -22,-13 -8,-21 -187,-51 -255,-43 -31,4 -72,9 -90,11 -52,6 -159,63 -207,110 -25,24 -45,47 -45,52 0,5 -9,15 -19,23 -11,7 -17,18 -14,22 3,5 -2,17 -10,26 -13,16 -19,31 -46,118 -10,35 -9,169 3,224 11,54 61,151 100,194 20,21 36,42 36,47 0,5 6,9 14,9 8,0 22,10 31,23 8,12 18,21 20,19 3,-1 15,4 28,13 12,8 49,23 82,33 51,17 95,20 291,21 192,2 233,0 243,-13 10,-11 9,-16 -1,-23 -7,-4 -20,-21 -28,-38 -8,-16 -23,-41 -35,-54 -12,-15 -14,-21 -5,-16 11,6 12,5 4,-4 -7,-8 -69,-13 -195,-14 -226,-4 -253,-11 -329,-88 -69,-70 -72,-74 -89,-129 -24,-78 -17,-161 19,-237 31,-66 59,-103 80,-103 5,0 10,-4 10,-10 0,-13 54,-36 118,-50 65,-15 134,-9 184,14 40,19 128,103 128,122 0,7 3,14 8,16 4,2 16,21 27,43 11,22 34,63 52,92 18,29 33,56 33,61 0,4 8,17 18,28 9,11 26,35 36,54 11,19 22,37 25,40 7,6 34,52 53,90 7,14 15,27 18,30 5,5 9,12 68,115 18,33 39,63 45,67 7,4 9,8 4,8 -9,0 20,59 39,78 8,7 14,18 14,24 0,6 15,25 33,42 30,29 36,31 99,28 57,-3 66,-6 61,-20 z"
       id="path4" />
    <path
       d="m 2010,1947 c -111,-26 -191,-82 -240,-172 -24,-42 -143,-254 -177,-315 -11,-19 -49,-87 -85,-150 -36,-63 -76,-135 -90,-160 -14,-25 -66,-117 -116,-205 l -90,-160 110,-3 c 71,-2 115,1 124,9 7,6 41,59 75,117 34,59 74,127 89,152 15,25 99,167 188,315 88,149 173,283 188,299 84,85 247,89 352,10 87,-67 121,-246 66,-350 -35,-67 -69,-100 -131,-129 -49,-24 -61,-25 -240,-25 -103,0 -193,-4 -200,-8 -11,-7 -83,-124 -118,-192 l -16,-31 283,3 c 320,5 331,7 450,85 155,102 237,267 225,453 -14,214 -131,377 -316,441 -72,25 -253,34 -331,16 z m 297,-36 c 68,-20 140,-64 191,-117 59,-62 71,-83 104,-175 33,-91 32,-254 0,-316 -12,-24 -20,-43 -17,-43 4,0 -3,-13 -14,-29 -12,-16 -21,-32 -21,-35 0,-13 -51,-66 -120,-126 -29,-25 -101,-59 -155,-72 -60,-16 -496,-22 -505,-8 -8,13 27,90 41,90 5,0 9,7 9,15 0,8 4,15 9,15 5,0 11,8 13,18 5,16 21,18 184,21 98,1 190,5 204,8 37,9 112,48 135,72 40,40 71,89 67,104 -1,4 2,7 6,7 12,0 16,36 16,143 0,76 -3,100 -14,107 -8,6 -12,10 -7,10 4,0 -1,12 -10,28 -52,79 -101,112 -203,136 -52,12 -68,12 -122,0 -86,-20 -117,-42 -174,-119 -16,-22 -31,-42 -34,-45 -3,-3 -18,-31 -34,-62 -16,-32 -33,-58 -38,-58 -5,0 -7,-4 -4,-8 3,-5 -6,-25 -19,-45 -14,-20 -25,-40 -25,-45 0,-5 -9,-17 -20,-27 -11,-10 -20,-23 -20,-29 0,-6 -18,-39 -40,-74 -22,-34 -40,-67 -40,-72 0,-6 -4,-10 -10,-10 -5,0 -10,-4 -10,-9 0,-10 -69,-132 -79,-141 -3,-3 -19,-30 -35,-60 -33,-61 -72,-119 -95,-137 -8,-8 -42,-13 -78,-13 -61,0 -63,1 -63,26 0,14 4,22 10,19 5,-3 7,0 4,8 -3,8 2,20 10,27 9,7 13,16 10,21 -3,5 -1,9 4,9 5,0 15,14 22,30 7,17 17,30 22,30 5,0 6,4 3,10 -3,5 -1,10 5,10 6,0 9,4 5,9 -3,5 -1,12 4,15 5,3 24,34 41,68 18,35 36,65 40,68 4,3 19,30 33,62 15,31 31,58 37,60 6,2 12,13 15,26 2,12 13,35 24,51 12,16 21,34 21,40 0,6 3,11 8,11 4,0 13,15 20,33 15,35 15,36 66,120 20,32 36,63 36,68 0,5 5,9 11,9 5,0 8,4 4,9 -3,5 0,13 5,16 6,4 23,31 37,61 50,107 137,172 255,193 60,11 227,6 275,-8 z"
       id="path6" />
  </g>
  <g
     id="g16422"
     style="display:inline">
    <path
       id="path2312"
       style="display:inline;fill:#c71585;fill-opacity:1;stroke-width:0.678657"
       d="m 123.86087,48 -45.420243,77.53241 a 28.665588,28.251299 0 0 1 -7.56296,12.38082 c -1.089302,1.03187 -2.251619,1.97238 -3.477526,2.81396 a 28.665588,28.251299 0 0 1 -0.851072,0.55809 c -1.340102,0.85172 -2.744391,1.59445 -4.204085,2.21337 a 28.665588,28.251299 0 0 1 -0.6416,0.25782 c -1.575458,0.624 -3.204651,1.11817 -4.874982,1.45898 a 28.665588,28.251299 0 0 1 -0.35449,0.063 c -1.763483,0.33714 -3.564935,0.51867 -5.387675,0.52295 -5.893733,1e-4 -11.370312,-1.75506 -15.925722,-4.76073 -1.563026,-1.03129 -3.018025,-2.20809 -4.343246,-3.51414 -5.187553,-5.11259 -8.398056,-12.17446 -8.397918,-19.97601 A 28.665588,28.251299 0 0 1 48.143377,89.5853 c 1.637174,-0.25609 2.705164,-0.28619 2.937,-0.28565 a 28.665588,28.251299 0 0 1 0.0059,0 28.665588,28.251299 0 0 1 0.01465,0 c 0.01994,1.1e-4 0.08789,0 0.08789,0 H 85.315114 L 98.318484,67.10149 H 51.188775 C 22.918594,67.10176 2.7704664e-4,89.68891 0,117.55051 c -5.5410816e-4,27.86218 22.918007,50.44876 51.188775,50.44903 21.587896,-0.0206 40.84177,-13.38706 48.131658,-33.41296 3.76e-4,-0.001 0.0011,-0.002 0.0015,-0.003 L 149.99944,48.076172 Z m 56.94998,16.00043 c -21.58796,0.0206 -40.84174,13.38705 -48.13165,33.41295 -3.7e-4,10e-4 -0.001,0.002 -0.001,0.003 L 82.000654,183.9224 108.13923,184 153.55947,106.46758 a 28.665687,28.251299 0 0 1 7.56296,-12.38228 c 1.08932,-1.03187 2.2516,-1.97238 3.47753,-2.81396 a 28.665687,28.251299 0 0 1 0.84961,-0.55663 c 1.3401,-0.85172 2.74438,-1.59445 4.20408,-2.21337 a 28.665687,28.251299 0 0 1 0.6416,-0.25781 c 1.57546,-0.624 3.20612,-1.11817 4.87645,-1.45898 a 28.665687,28.251299 0 0 1 0.35302,-0.063 c 1.76349,-0.33714 3.5664,-0.52013 5.38914,-0.52441 5.89376,-1e-4 11.36883,1.75505 15.92426,4.76073 1.56303,1.03129 3.01949,2.20954 4.34471,3.5156 5.18757,5.11259 8.39659,12.17445 8.39645,19.97601 a 28.665687,28.251299 0 0 1 -25.72402,27.96522 c -1.63718,0.25609 -2.70371,0.28618 -2.93554,0.28564 a 28.665687,28.251299 0 0 1 -0.006,0 28.665687,28.251299 0 0 1 -0.0161,0 c -0.0199,-1.1e-4 -0.0864,0 -0.0864,0 h -34.12633 l -13.00338,22.19816 h 47.12971 C 209.08151,164.89823 231.99972,142.31108 232,114.44948 232.00057,86.5873 209.08209,64.00072 180.81122,64.00045 Z" />
  </g>
</svg>
