<?xml version="1.0" encoding="UTF-8" standalone="no"?>
<svg
   width="552"
   height="552"
   viewBox="0 0 552 552"
   fill="none"
   version="1.1"
   id="svg88"
   sodipodi:docname="protonmail.svg"
   inkscape:version="1.2.1 (9c6d41e410, 2022-07-14)"
   xmlns:inkscape="http://www.inkscape.org/namespaces/inkscape"
   xmlns:sodipodi="http://sodipodi.sourceforge.net/DTD/sodipodi-0.dtd"
   xmlns="http://www.w3.org/2000/svg"
   xmlns:svg="http://www.w3.org/2000/svg">
  <sodipodi:namedview
     id="namedview90"
     pagecolor="#ffffff"
     bordercolor="#000000"
     borderopacity="0.25"
     inkscape:showpageshadow="2"
     inkscape:pageopacity="0.0"
     inkscape:pagecheckerboard="0"
     inkscape:deskcolor="#d1d1d1"
     showgrid="false"
     inkscape:zoom="1.2833868"
     inkscape:cx="178.04453"
     inkscape:cy="279.7286"
     inkscape:window-width="1920"
     inkscape:window-height="1005"
     inkscape:window-x="0"
     inkscape:window-y="0"
     inkscape:window-maximized="1"
     inkscape:current-layer="svg88" />
  <path
     d="M 0,72.642636 C 0,61.95384 12.527859,56.107117 20.796758,62.934875 L 239.51724,243.5449 c 21.15048,17.46449 51.81503,17.46449 72.96551,0 L 531.20325,62.934875 C 539.47213,56.107117 552,61.95384 552,72.642636 V 443.22027 C 552,474.57847 526.43352,500 494.89656,500 H 57.10345 C 25.566482,500 0,474.57847 0,443.22027 Z"
     fill="#6d4aff"
     id="path70"
     style="stroke-width:1.58168" />
  <path
     fill-rule="evenodd"
     clip-rule="evenodd"
     d="m 350.52159,212.13309 0.0306,0.0253 -110.1494,96.74793 C 221.638,325.38663 193.5907,325.803 174.34205,309.88419 L 0,165.71407 V 72.642636 C 0,61.95384 12.527859,56.107117 20.796758,62.934875 L 239.51724,243.5449 c 21.15048,17.46449 51.81503,17.46449 72.96551,0 z"
     fill="url(#paint0_linear_5497_105457)"
     id="path72"
     style="fill:url(#paint0_linear_5497_105457);stroke-width:1.58168" />
  <path
     fill-rule="evenodd"
     clip-rule="evenodd"
     d="M 434.62072,142.6899 V 500 h 60.27584 C 526.43352,500 552,474.57687 552,443.22027 V 72.642636 C 552,61.95384 539.47213,56.105528 531.20325,62.936451 Z"
     fill="url(#paint1_linear_5497_105457)"
     id="path74"
     style="fill:url(#paint1_linear_5497_105457);stroke-width:1.58168" />
  <defs
     id="defs86">
    <linearGradient
       id="paint0_linear_5497_105457"
       x1="364.5"
       y1="277.5"
       x2="285.177"
       y2="-61.1409"
       gradientUnits="userSpaceOnUse"
       gradientTransform="matrix(1.5862071,0,0,1.5772147,-161.79309,-162.43017)">
      <stop
         stop-color="#E2DBFF"
         id="stop76" />
      <stop
         offset="1"
         stop-color="#6D4AFF"
         id="stop78" />
    </linearGradient>
    <linearGradient
       id="paint1_linear_5497_105457"
       x1="556"
       y1="603.5"
       x2="285.302"
       y2="25.2311"
       gradientUnits="userSpaceOnUse"
       gradientTransform="matrix(1.5862071,0,0,1.5772147,-161.79309,-162.43017)">
      <stop
         offset="0.271019"
         stop-color="#E2DBFF"
         id="stop81" />
      <stop
         offset="1"
         stop-color="#6D4AFF"
         id="stop83" />
    </linearGradient>
  </defs>
</svg>
